# AST/ASF file generated using VICON BodyLanguage
# -----------------------------------------------
:version 1.10
:name VICON
:units
  mass 1.0
  length 0.45
  angle deg
:documentation
   .ast/.asf automatically generated from VICON data using
   VICON BodyBuilder and BodyLanguage model FoxedUp or BRILLIANT.MOD
:root
   order TX TY TZ RX RY RZ
   axis XYZ
   position 0 0 0  
   orientation 0 -0 0 
:bonedata
  begin
     id 1 
     name lhipjoint
     direction 0.515797 -0.759363 0.396637 
     length 2.47888 
     axis 0 -0 0  XYZ
  end
  begin
     id 2 
     name lfemur
     direction 0.34202 -0.939693 0  
     length 6.81885  
     axis 0 -0 20  XYZ
    dof rx ry rz
    limits (-160.0 20.0)
           (-70.0 70.0)
           (-60.0 70.0)
  end
  begin
     id 3 
     name ltibia
     direction 0.342037 -0.939687 0   
     length 7.89258   
     axis 0 -0 20   XYZ
    dof rx
    limits (-10.0 170.0)
  end
  begin
     id 4 
     name lfoot
     direction 0.173497 -0.476678 0.861787   
     length 2.51543   
     axis -90 -1.13533e-015 20   XYZ
    dof rx rz
    limits (-45.0 90.0)
           (-70.0 20.0)
  end
  begin
     id 5 
     name ltoes
     direction 1.53564e-011 -4.21897e-011 1   
     length 1.21388   
     axis -90 -1.13533e-015 20   XYZ
    dof rx
    limits (-90.0 20.0)
  end
  begin
     id 6 
     name rhipjoint
     direction -0.489454 -0.772941 0.403729   
     length 2.43534  
     axis 0 -0 0  XYZ 
  end
  begin
     id 7 
     name rfemur
     direction -0.34202 -0.939693 0   
     length 7.10357   
     axis 0 -0 -20   XYZ
    dof rx ry rz
    limits (-160.0 20.0)
           (-70.0 70.0)
           (-70.0 60.0)
  end
  begin
     id 8 
     name rtibia
     direction -0.34202 -0.939693 0   
     length 9.16127   
     axis 0 -0 -20   XYZ
    dof rx
    limits (-10.0 170.0)
 end
 begin
     id 9 
     name rfoot
     direction -0.270974 -0.748671 0.605033   
     length 1.74894  
     axis -90 1.13533e-015 -20   XYZ
    dof rx rz
    limits (-45.0 90.0)
           (-20.0 70.0)
  end
  begin
     id 10 
     name rtoes
     direction -1.53557e-011 -4.21759e-011 1   
     length 0.787585   
     axis -90 1.13533e-015 -20   XYZ
    dof rx
    limits (-90.0 20.0)
  end
  begin
     id 11 
     name lowerback
     direction -0.0140249 0.999561 0.0260968   
     length 2.16963   
     axis 0 -0 0   XYZ
    dof rx ry rz
    limits (-20.0 45.0)
           (-30.0 30.0)
           (-30.0 30.0)
  end
  begin
     id 12 
     name upperback
     direction 0.00860018 0.999959 -0.002711   
     length 2.1726   
     axis 0 -0 0   XYZ
    dof rx ry rz
    limits (-20.0 45.0)
           (-30.0 30.0)
           (-30.0 30.0)
  end
  begin
     id 13 
     name thorax
     direction 0.015211 0.999782 -0.0143191   
     length 2.17061   
     axis 0 -0 0   XYZ
    dof rx ry rz
    limits (-20.0 45.0)
           (-30.0 30.0)
           (-30.0 30.0)
  end
  begin
     id 14 
     name lowerneck
     direction -0.0140143 0.999447 0.030145   
     length 2.26749   
     axis 0 -0 0   XYZ
    dof rx ry rz
    limits (-20.0 45.0)
           (-30.0 30.0)
           (-30.0 30.0)
  end
  begin
     id 15 
     name upperneck
     direction 0.118062 0.961438 -0.248392   
     length 2.22728   
     axis 0 -0 0   XYZ
    dof rx ry rz
    limits (-20.0 45.0)
           (-30.0 30.0)
           (-30.0 30.0)
  end
  begin
     id 16
     name head
     direction 0.0431885 0.9954 -0.085514  
     length 2.28786  
     axis 0 -0 0   XYZ
    dof rx ry rz
    limits (-20.0 45.0)
           (-30.0 30.0)
           (-30.0 30.0)
  end
  begin
     id 17 
     name lclavicle
     direction 0.912126 0.409548 0.0172323  
     length 4.31571  
     axis 0 -0 0   XYZ
    dof ry rz
    limits (-20.0 10.0)
           (0.0 20.0)
  end
  begin
     id 18 
     name lhumerus
     direction 1 -4.48977e-011 1.93091e-027   
     length 5.13658   
     axis 180 -30 -90   XYZ
    dof rx ry rz
    limits (-60.0 90.0)
           (-90.0 90.0)
           (-90.0 90.0)
  end
  begin
     id 19
     name lradius
     direction 1 -4.48916e-011 6.84018e-027   
     length 3.22473   
     axis 180 -30 -90   XYZ
    dof rx
    limits (-10.0 170.0)
  end
  begin
     id 20
     name lwrist
     direction 1 -4.48987e-011 7.01981e-027   
     length 1.61236   
     axis -4.37994e-015 90 90   XYZ
    dof ry
    limits (-180.0 0.0)
 end
  begin
     id 21 
     name lhand
     direction 1 -4.49037e-011 1.40335e-026   
     length 0.936406   
     axis -8.96029e-015 90 90   XYZ
    dof rx rz
    limits (-90.0 90.0)
           (-45.0 45.0)
  end
  begin
     id 22 
     name lfingers
     direction 1 -4.48886e-011 2.8104e-026   
     length 0.754955   
     axis -1.79203e-014 90 90   XYZ
    dof rx
    limits (0.0 90.0)
  end
  begin
     id 23
     name lthumb
     direction 0.707107 -6.34937e-011 0.707107   
     length 1.08397   
     axis -90 45 -4.48555e-014   XYZ
    dof rx rz
    limits (-45.0 45.0)
           (-45.0 45.0)
  end
  begin
     id 24 
     name rclavicle
     direction -0.947962 0.317997 0.0156638   
     length 4.86918  
     axis 0 -0 0   XYZ 
    dof ry rz
    limits (-10.0 20.0)
           (-20.0 0.0)
  end
  begin
     id 25 
     name rhumerus
     direction -1 -4.48951e-011 2.80534e-018  
     length 5.60911   
     axis 180 30 90   XYZ
    dof rx ry rz
    limits (-90.0 60.0)
           (-90.0 90.0)
           (-90.0 90.0)
  end
  begin
     id 26 
     name rradius
     direction -1 -4.4898e-011 2.11315e-027   
     length 3.38704   
     axis 180 30 90   XYZ
    dof rx
    limits (-10.0 170.0)
  end
  begin
     id 27 
     name rwrist
     direction -1 -4.48933e-011 7.02314e-027   
     length 1.69352   
     axis -4.37994e-015 -90 -90   XYZ
    dof ry
    limits (-180.0 0.0)
  end
  begin
     id 28
     name rhand
     direction -1 -4.48937e-011 1.40458e-026   
     length 0.755878   
     axis -8.96029e-015 -90 -90   XYZ
    dof rx rz
    limits (-90.0 90.0)
           (-45.0 45.0)
  end
  begin
     id 29
     name rfingers
     direction -1 -4.4901e-011 2.80737e-026   
     length 0.609409   
     axis -1.79203e-014 -90 -90   XYZ
    dof rx
    limits (0.0 90.0)
  end
  begin
     id 30
     name rthumb
     direction -0.707107 -6.34968e-011 0.707107   
     length 0.874992   
     axis -90 -45 4.48555e-014   XYZ
    dof rx rz
    limits (-45.0 45.0)
           (-45.0 45.0)
  end
:hierarchy
  begin
    root lhipjoint rhipjoint lowerback
    lhipjoint lfemur
    lfemur ltibia
    ltibia lfoot
    lfoot ltoes
    rhipjoint rfemur
    rfemur rtibia
    rtibia rfoot
    rfoot rtoes
    lowerback upperback
    upperback thorax
    thorax lowerneck lclavicle rclavicle
    lowerneck upperneck
    upperneck head
    lclavicle lhumerus
    lhumerus lradius
    lradius lwrist
    lwrist lhand lthumb
    lhand lfingers
    rclavicle rhumerus
    rhumerus rradius
    rradius rwrist
    rwrist rhand rthumb
    rhand rfingers
  end

#!OML:ASF C:\ViconDB\ViconDB\414\Spring2016\041811\Spring2016.ASF
:FULLY-SPECIFIED
:DEGREES
157
root 9.01459 19.1442 -10.4454 165.921 -71.2286 200.729
lowerback 2.52103 -4.0941 -4.81378
upperback -0.451705 -5.59033 1.45841
thorax -1.27018 -2.75356 4.3622
lowerneck -17.3147 -5.01137 -16.3193
upperneck 23.7915 -9.52756 22.2067
head 12.7773 -3.69797 10.036
rclavicle 7.38485e-014 -1.66979e-014
rhumerus -44.5066 -26.9707 14.1306
rradius 27.9075
rwrist 44.082
rhand -30.6483 -14.9396
rfingers 7.12502
rthumb -3.94355 -44.8828
lclavicle 7.38485e-014 -1.66979e-014
lhumerus -21.8239 -9.44548 7.218
lradius 28.2802
lwrist -11.1146
lhand -28.2786 20.4036
lfingers 7.12502
lthumb -1.65501 50.3769
rfemur -8.77533 -202.882 2.08713
rtibia 28.5999
rfoot -31.2422 -51.9936
rtoes -16.5236
lfemur -11.8311 -10.985 -5.79756
ltibia 20.1755
lfoot -12.7907 -4.81199
ltoes -12.9868
158
root 9.03242 19.0315 -10.3242 167.138 -68.4664 198.703
lowerback 3.4368 -3.93633 -4.361
upperback -0.293721 -5.40223 1.47864
thorax -1.67951 -2.65439 4.1967
lowerneck -17.2451 -4.80674 -16.0782
upperneck 23.7572 -9.17205 21.802
head 12.6097 -3.55413 9.85629
rclavicle 1.31496e-013 -1.82882e-014
rhumerus -43.288 -27.3536 14.3288
rradius 27.6117
rwrist 44.0144
rhand -30.6417 -15.1217
rfingers 7.12502
rthumb -3.93713 -45.065
lclavicle 1.31496e-013 -1.82882e-014
lhumerus -21.9491 -9.07429 6.39351
lradius 28.2585
lwrist -11.5042
lhand -28.5829 20.7017
lfingers 7.12502
lthumb -1.94887 50.6725
rfemur -10.106 -198.788 0.333418
rtibia 28.7695
rfoot -25.5761 -51.9085
rtoes -15.355
lfemur -11.9401 -7.73041 -6.53127
ltibia 22.8727
lfoot -13.9773 -4.57636
ltoes -12.9688
159
root 9.03334 18.9324 -10.2204 168.599 -65.9684 196.368
lowerback 4.36987 -3.78328 -4.23017
upperback -0.309472 -5.23502 1.27263
thorax -2.26623 -2.55493 3.98285
lowerneck -16.6826 -4.54642 -15.9341
upperneck 23.6698 -8.94593 21.8376
head 12.3872 -3.48155 9.86291
rclavicle -1.0635e-014 -2.46493e-014
rhumerus -42.5343 -27.6315 14.6482
rradius 27.496
rwrist 44.3083
rhand -30.5716 -15.6006
rfingers 7.12502
rthumb -3.86944 -45.5452
lclavicle -1.0635e-014 -2.46493e-014
lhumerus -21.675 -8.87428 5.50329
lradius 28.1769
lwrist -12.0182
lhand -28.8351 20.6726
lfingers 7.12502
lthumb -2.19247 50.641
rfemur -11.4626 -195.085 -1.52075
rtibia 29.0348
rfoot -20.7489 -51.7491
rtoes -15.4096
lfemur -11.8325 -4.79284 -7.47787
ltibia 25.143
lfoot -14.8741 -4.16047
ltoes -12.6981
160
root 9.03158 18.8513 -10.1403 170.86 -63.8083 193.483
lowerback 4.5008 -3.69967 -4.83761
upperback -0.152364 -5.16299 1.08917
thorax -2.14829 -2.519 4.13006
lowerneck -16.5395 -4.46171 -15.9695
upperneck 23.7375 -8.849 21.7685
head 12.353 -3.46541 9.8572
rclavicle 5.18828e-014 1.35174e-014
rhumerus -41.8513 -27.9328 14.8531
rradius 27.3811
rwrist 44.1255
rhand -30.9157 -15.5612
rfingers 7.12502
rthumb -4.2017 -45.4995
lclavicle 5.18828e-014 1.35174e-014
lhumerus -21.4512 -8.18543 5.06616
lradius 28.2625
lwrist -12.0258
lhand -29.2499 20.8688
lfingers 7.12502
lthumb -2.59302 50.8328
rfemur -12.5943 -191.318 -3.61387
rtibia 29.5577
rfoot -15.5536 -51.2996
rtoes -16.3708
lfemur -11.9229 -2.46443 -8.78381
ltibia 26.9131
lfoot -15.6203 -3.44554
ltoes -12.4994
161
root 9.0203 18.7987 -10.083 173.071 -61.727 190.905
lowerback 4.11257 -3.62769 -5.50627
upperback -0.0605247 -5.08229 0.884538
thorax -1.80581 -2.4856 4.25182
lowerneck -16.2222 -4.42919 -16.0086
upperneck 23.7577 -8.82335 21.6275
head 12.2759 -3.49726 9.80129
rclavicle -6.64935e-014 -3.97569e-015
rhumerus -41.238 -27.1894 14.4723
rradius 27.4852
rwrist 43.1926
rhand -31.0282 -16.2908
rfingers 7.12502
rthumb -4.31041 -46.2269
lclavicle -6.64935e-014 -3.97569e-015
lhumerus -21.107 -6.68316 4.62991
lradius 27.9058
lwrist -14.3928
lhand -29.5322 20.3224
lfingers 7.12502
lthumb -2.8657 50.2829
rfemur -13.4922 -188.007 -5.45498
rtibia 30.2153
rfoot -10.748 -50.7982
rtoes -18.5168
lfemur -12.1625 -0.690648 -10.0329
ltibia 28.3487
lfoot -16.4325 -2.40918
ltoes -12.5073
162
root 9.01234 18.75 -10.0371 175.01 -59.8629 188.626
lowerback 3.76322 -3.61226 -6.15166
upperback -0.0264829 -5.07483 0.612742
thorax -1.54551 -2.48714 4.30038
lowerneck -16.0818 -4.3685 -15.9247
upperneck 23.9574 -8.82178 21.5076
head 12.3086 -3.52294 9.74518
rclavicle -7.7526e-015 2.22639e-014
rhumerus -40.7499 -26.4949 14.1198
rradius 27.4148
rwrist 42.206
rhand -30.9597 -16.1345
rfingers 7.12502
rthumb -4.24417 -46.072
lclavicle -7.7526e-015 2.22639e-014
lhumerus -20.9301 -6.4162 4.62999
lradius 28.3762
lwrist -14.1243
lhand -29.7505 20.7265
lfingers 7.12502
lthumb -3.07646 50.684
rfemur -14.5132 -185.747 -7.08177
rtibia 30.9353
rfoot -6.26608 -50.7097
rtoes -20.6355
lfemur -12.3746 0.852008 -11.2394
ltibia 29.4632
lfoot -16.9795 -1.26313
ltoes -12.687
